<?xml version="1.0" encoding="utf-8"?>
<!-- Generator: Adobe Illustrator 23.1.1, SVG Export Plug-In . SVG Version: 6.00 Build 0)  -->
<svg version="1.1" id="Layer_1" xmlns="http://www.w3.org/2000/svg" xmlns:xlink="http://www.w3.org/1999/xlink" x="0px" y="0px"
	 viewBox="0 0 583.14 311.02" style="enable-background:new 0 0 583.14 311.02;" xml:space="preserve">
<style type="text/css">
	.st0{fill:#FFFFFF;}
	.st1{fill:#FFAD5F;}
</style>
<g>
	<polygon class="st0" points="0,74.3 0,245 37.36,208.05 37.36,37.34 37.36,37.25 	"/>
	<polygon class="st0" points="401.27,236.72 401.27,121.52 401.21,121.62 401.21,37.34 401.21,37.25 363.85,74.3 363.85,197.73 
		363.91,197.66 363.91,273.67 	"/>
	<polygon class="st1" points="583.14,63.55 519.57,0 438.13,0 401.15,37.34 458.77,37.34 498.93,37.34 545.84,84.22 545.84,247.46 
		583.14,209.77 	"/>
	<polygon class="st1" points="363.91,273.67 306.29,273.67 266.23,273.67 219.32,226.8 219.32,63.55 155.72,0 74.3,0 37.36,37.34 
		94.98,37.34 135.04,37.34 181.95,84.22 181.95,247.46 245.57,311.02 326.99,311.02 	"/>
</g>
</svg>
