<?xml version="1.0" encoding="utf-8"?>
<!-- Generator: Adobe Illustrator 23.1.1, SVG Export Plug-In . SVG Version: 6.00 Build 0)  -->
<svg version="1.1" id="Capa_1" xmlns="http://www.w3.org/2000/svg" xmlns:xlink="http://www.w3.org/1999/xlink" x="0px" y="0px"
	 viewBox="0 0 75.77 77.8" style="enable-background:new 0 0 75.77 77.8;" xml:space="preserve">
<style type="text/css">
	.st0{fill:#FFFFFF;}
</style>
<g>
	<path class="st0" d="M53.32,0H22.45C10.08,0,0,10.08,0,22.46v32.89C0,67.73,10.08,77.8,22.45,77.8h30.87
		c12.39,0,22.45-10.07,22.45-22.44V22.46C75.77,10.08,65.71,0,53.32,0z M53.32,70.15H22.45c-3.91,0-7.62-1.54-10.44-4.35
		c-2.81-2.81-4.36-6.52-4.36-10.44V22.46c0-3.94,1.55-7.66,4.36-10.47c2.8-2.78,6.52-4.32,10.44-4.32h30.87
		c3.93,0,7.65,1.54,10.46,4.32c2.81,2.81,4.35,6.53,4.35,10.47v32.89c0,3.91-1.54,7.63-4.34,10.43
		C60.94,68.61,57.23,70.15,53.32,70.15z"/>
	<path class="st0" d="M38,17.29c-11.75,0-21.3,9.56-21.3,21.31c0,11.75,9.54,21.31,21.3,21.31c11.75,0,21.3-9.56,21.3-21.31
		C59.3,26.85,49.75,17.29,38,17.29z M37.9,26.3c6.8,0,12.34,5.53,12.34,12.33S44.7,50.96,37.9,50.96c-6.79,0-12.32-5.53-12.32-12.33
		S31.11,26.3,37.9,26.3z"/>
	<path class="st0" d="M58.66,12.19c-3.2,0-5.8,2.59-5.8,5.79c0,3.2,2.6,5.79,5.8,5.79c3.18,0,5.8-2.59,5.8-5.79
		C64.46,14.78,61.84,12.19,58.66,12.19z"/>
</g>
</svg>
