<?xml version="1.0" encoding="utf-8"?>
<!-- Generator: Adobe Illustrator 23.1.1, SVG Export Plug-In . SVG Version: 6.00 Build 0)  -->
<svg version="1.1" id="Layer_1" xmlns="http://www.w3.org/2000/svg" xmlns:xlink="http://www.w3.org/1999/xlink" x="0px" y="0px"
	 viewBox="0 0 1791.19 872.07" style="enable-background:new 0 0 1791.19 872.07;" xml:space="preserve">
<style type="text/css">
	.st0{fill:#FFAD5F;}
	.st1{fill:#FFFFFF;}
</style>
<g>
	<path class="st0" d="M400.41,855.08v0.39c0,4.63-1.62,8.54-4.94,11.76c-3.32,3.23-7.29,4.84-11.95,4.84
		c-4.77,0-8.75-1.62-12.03-4.84c-3.32-3.32-4.94-7.23-4.94-11.88v-35c0-4.65,1.62-8.49,4.84-11.72c3.22-3.28,7.29-4.88,12.13-4.88
		c4.77,0,8.73,1.6,11.95,4.88c3.22,3.23,4.86,7.07,4.86,11.72h-4.86c-0.12-3.32-1.23-6.15-3.61-8.49c-2.36-2.41-5.1-3.62-8.44-3.62
		c-6.84,0-11.93,5.43-11.93,12.21v34.82c0,3.32,1.21,6.29,3.57,8.63c2.38,2.34,5.23,3.62,8.46,3.62c3.32,0,6.17-1.17,8.44-3.42
		c2.38-2.38,3.52-5.23,3.52-8.55v-0.47H400.41z"/>
	<path class="st0" d="M485.88,855.47c0,4.63-1.6,8.63-4.92,11.86c-3.22,3.12-7.38,4.74-12.54,4.74c-5.1,0-9.28-1.62-12.64-4.84
		c-3.3-3.22-4.88-7.23-4.88-11.88v-35c0-4.65,1.58-8.63,4.88-11.76c3.36-3.24,7.54-4.84,12.64-4.84c5.16,0,9.32,1.6,12.54,4.84
		c3.32,3.12,4.92,7.11,4.92,11.76V855.47z M480.96,820.45c0-6.84-5.04-12.11-12.54-12.11c-7.56,0-12.64,5.27-12.64,12.11v35.02
		c0,6.84,5.08,11.99,12.64,11.99c7.5,0,12.54-5.08,12.54-11.91V820.45z"/>
	<polygon class="st0" points="566.25,804.73 572.79,804.73 572.79,871.09 567.87,871.09 567.87,817.52 568.12,812.19 567.87,812.11 
		556.19,840.96 551.37,840.96 539.67,812.11 539.39,812.19 539.67,817.52 539.67,871.09 534.82,871.09 534.82,804.73 541.41,804.73 
		553.83,836.17 	"/>
	<polygon class="st0" points="651.6,804.73 658.16,804.73 658.16,871.09 653.26,871.09 653.26,817.52 653.52,812.19 653.26,812.11 
		641.56,840.96 636.74,840.96 625.06,812.11 624.8,812.19 625.06,817.52 625.06,871.09 620.21,871.09 620.21,804.73 626.78,804.73 
		639.2,836.17 	"/>
	<path class="st0" d="M737.11,804.73h4.92v50.74c0,4.63-1.6,8.54-4.82,11.76c-3.22,3.23-7.13,4.84-11.78,4.84h-1.8
		c-4.55,0-8.44-1.62-11.78-4.84c-3.2-3.32-4.8-7.23-4.8-11.88v-50.62h4.92v50.74c0,3.32,1.15,6.13,3.42,8.54
		c2.38,2.34,5.21,3.52,8.63,3.52h1.11c3.32,0,6.21-1.17,8.46-3.42c2.38-2.38,3.52-5.23,3.52-8.55V804.73z"/>
	<polygon class="st0" points="822.13,804.73 826.97,804.73 826.97,871.09 820.82,871.09 799.26,817.42 797.71,811.6 797.42,811.72 
		797.81,817.81 797.81,871.09 792.99,871.09 792.99,804.73 799.16,804.73 820.61,858.4 822.21,864.2 822.5,864.1 822.13,858.01 	"/>
	<polygon class="st0" points="878.16,809.26 878.16,804.73 912.52,804.73 912.52,809.26 897.91,809.26 897.91,866.55 912.52,866.55 
		912.52,871.09 878.16,871.09 878.16,866.55 892.99,866.55 892.99,809.26 	"/>
	<path class="st0" d="M998.07,855.08v0.39c0,4.63-1.6,8.54-4.88,11.76c-3.36,3.23-7.3,4.84-11.95,4.84c-4.73,0-8.75-1.62-12.07-4.84
		c-3.36-3.32-4.92-7.23-4.92-11.88v-35c0-4.65,1.56-8.49,4.84-11.72c3.2-3.28,7.3-4.88,12.15-4.88c4.73,0,8.69,1.6,11.95,4.88
		c3.24,3.23,4.8,7.07,4.8,11.72h-4.8c-0.14-3.32-1.25-6.15-3.59-8.49c-2.4-2.41-5.14-3.62-8.52-3.62c-6.78,0-11.91,5.43-11.91,12.21
		v34.82c0,3.32,1.23,6.29,3.57,8.63c2.4,2.34,5.27,3.62,8.5,3.62c3.28,0,6.09-1.17,8.44-3.42c2.34-2.38,3.52-5.23,3.52-8.55v-0.47
		H998.07z"/>
	<path class="st0" d="M1060.96,804.73h10.31l11.82,40.39v26.02h-4.94v-22.7h-24.06v22.7h-4.92v-26.02L1060.96,804.73z
		 M1077.71,843.89l-9.86-34.63h-3.46l-9.88,34.63H1077.71z"/>
	<polygon class="st0" points="1132.6,809.26 1132.6,804.73 1170.39,804.73 1170.39,809.26 1153.98,809.26 1153.98,871.09 
		1149.04,871.09 1149.04,809.26 	"/>
	<polygon class="st0" points="1219.71,809.26 1219.71,804.73 1254.08,804.73 1254.08,809.26 1239.43,809.26 1239.43,866.55 
		1254.08,866.55 1254.08,871.09 1219.71,871.09 1219.71,866.55 1234.51,866.55 1234.51,809.26 	"/>
	<path class="st0" d="M1339.73,855.47c0,4.63-1.62,8.63-4.94,11.86c-3.2,3.12-7.42,4.74-12.5,4.74c-5.16,0-9.32-1.62-12.64-4.84
		c-3.32-3.22-4.94-7.23-4.94-11.88v-35c0-4.65,1.62-8.63,4.94-11.76c3.32-3.24,7.48-4.84,12.64-4.84c5.08,0,9.3,1.6,12.5,4.84
		c3.32,3.12,4.94,7.11,4.94,11.76V855.47z M1334.79,820.45c0-6.84-5.02-12.11-12.5-12.11c-7.62,0-12.64,5.27-12.64,12.11v35.02
		c0,6.84,5.02,11.99,12.64,11.99c7.48,0,12.5-5.08,12.5-11.91V820.45z"/>
	<polygon class="st0" points="1419.8,804.73 1424.63,804.73 1424.63,871.09 1418.5,871.09 1396.95,817.42 1395.45,811.6 
		1395.14,811.72 1395.53,817.81 1395.53,871.09 1390.7,871.09 1390.7,804.73 1396.86,804.73 1418.3,858.4 1419.9,864.2 
		1420.2,864.1 1419.8,858.01 	"/>
	<path class="st1" d="M814.02,537.34c7.42-9.34,11.99-20.9,11.99-33.75c0-30.16-24.45-54.62-54.63-54.62H725.1l-30.33,30.27v47.32
		v31.68v81.05h86.41c31.13,0,56.35-25.2,56.35-56.34C837.52,564.14,828.22,547.6,814.02,537.34 M725.64,479.57h44.98
		c13.28,0,24.02,10.8,24.02,24.02c0,10.94-7.32,20.12-17.3,22.97h-51.7V479.57z M781.35,607.76h-55.7v-49.52h45.74
		c0.31,0,0.64-0.09,0.94-0.09h9.02c13.71,0,24.8,11.13,24.8,24.8C806.15,596.62,795.06,607.76,781.35,607.76"/>
	<path class="st1" d="M79.61,528.4c-24.53-7.66-48.52-13.67-48.52-31.91c0-15.23,14.45-25.64,35.7-25.64
		c20.45,0,38.44,12.01,42.79,33.3l0.1-0.04l22.95-23.01c-11.5-22.07-35.31-36.37-64.47-36.37c-39.26,0-67.91,23.67-67.91,53.4
		c0,33.27,30.27,43.87,52.64,51.52c26.99,8.98,56.43,13.91,56.43,37.66c0,16.29-14.16,28.85-38.42,28.85
		c-27.44,0-44.04-17.58-47.66-37.41L0,601.95c11.84,24.75,35.88,41.21,69.79,41.21c42.56,0,71.17-23.98,71.17-56.99
		C140.96,550.47,106.87,537.11,79.61,528.4"/>
	<path class="st1" d="M459.38,479.92v83.36c0,27.48-22.3,49.8-49.8,49.8s-49.79-22.32-49.79-49.8V448.97h-0.06l-31.02,31.05v82.95
		c0,44.69,36.23,80.86,80.86,80.86c44.67,0,80.88-36.17,80.88-80.86v-114h-0.1L459.38,479.92z"/>
	<polygon class="st1" points="1176.78,448.91 1117.52,534.18 1058.18,448.91 1027.42,479.73 1027.42,638.75 1058.18,638.75 
		1058.18,502.97 1117.52,585.04 1176.78,502.97 1176.78,638.75 1176.97,638.75 1207.56,608.15 1207.56,448.91 	"/>
	<polygon class="st1" points="1419.32,478.79 1419.32,638.75 1450.14,638.75 1450.14,448.91 1449.24,448.91 	"/>
	<polygon class="st1" points="1729.96,448.91 1699.2,448.91 1667.71,448.91 1637.77,478.85 1637.77,479.69 1699.2,479.69 
		1699.2,638.75 1729.96,638.75 1729.96,479.69 1760.43,479.69 1791.19,448.91 	"/>
	<polygon class="st1" points="632.27,74.3 632.27,245 669.63,208.05 669.63,37.34 669.63,37.25 	"/>
	<polygon class="st1" points="1033.54,236.72 1033.54,121.52 1033.48,121.62 1033.48,37.34 1033.48,37.25 996.11,74.3 
		996.11,197.73 996.17,197.66 996.17,273.67 	"/>
	<polygon class="st0" points="1215.41,63.55 1151.84,0 1070.39,0 1033.42,37.34 1091.04,37.34 1131.19,37.34 1178.11,84.22 
		1178.11,247.46 1215.41,209.77 	"/>
	<polygon class="st0" points="996.17,273.67 938.55,273.67 898.5,273.67 851.58,226.8 851.58,63.55 787.99,0 706.56,0 669.63,37.34 
		727.25,37.34 767.3,37.34 814.22,84.22 814.22,247.46 877.83,311.02 959.26,311.02 	"/>
</g>
</svg>
